<svg height="512" viewBox="0 0 64 64" width="512" xmlns="http://www.w3.org/2000/svg"><g id="Data_encryption-2" data-name="Data encryption"><path d="m59 23v30h-19v2a2.006 2.006 0 0 1 -2 2h-12a2.006 2.006 0 0 1 -2-2v-2h-19v-30a4 4 0 0 1 4-4h46a4 4 0 0 1 4 4z" fill="#3d9ae2"/><path d="m9 23h46v26h-46z" fill="#ffcd00"/><path d="m40 53v2a2.006 2.006 0 0 1 -2 2h-12a2.006 2.006 0 0 1 -2-2v-2h-21v4a4 4 0 0 0 4 4h50a4 4 0 0 0 4-4v-4z" fill="#58595b"/><rect fill="#006df0" height="22" rx="4" width="22" x="21" y="13"/><path d="m41 33h-14a4 4 0 0 1 -4-4v-14a3.984 3.984 0 0 1 .359-1.641 3.993 3.993 0 0 0 -2.359 3.641v14a4 4 0 0 0 4 4h14a3.993 3.993 0 0 0 3.641-2.359 3.984 3.984 0 0 1 -1.641.359z" fill="#005ece"/><circle cx="32" cy="20" fill="#f1f2f2" r="3"/><path d="m9 33v16h20c-11.055 0-20-7.156-20-16z" fill="#ebbf00"/><path d="m31 52h2v2h-2z" fill="#f1f2f2"/><path d="m35 52h2v2h-2z" fill="#f1f2f2"/><path d="m27 52h2v2h-2z" fill="#f1f2f2"/><path d="m31 23.858v8.142h2v-1h2v-2h-2v-1h2v-2h-2v-2.142a4 4 0 1 0 -2 0zm1-5.858a2 2 0 1 1 -2 2 2 2 0 0 1 2-2z" fill="#004fac"/><g fill="#4e901e"><path d="m50 40h-2v-8.465l-2.555-1.703 1.11-1.664 3.445 2.297z"/><path d="m16 40h-2v-10.721l3.684-1.228.632 1.898-2.316.772z"/><path d="m36 38h2v4h-2z"/><path d="m26 38h2v4h-2z"/><path d="m43.707 9.707-1.414-1.414 4.293-4.293h11.414v2h-10.586z"/><path d="m46 12h8v2h-8z"/><path d="m20.293 9.707-3.707-3.707h-10.586v-2h11.414l4.293 4.293z"/><path d="m9 12h9v2h-9z"/></g><path d="m39 13h-2v-4a5 5 0 0 0 -10 0v4h-2v-4a7 7 0 0 1 14 0z" fill="#004fac"/><circle cx="49" cy="41" fill="#5eac24" r="2"/><circle cx="15" cy="41" fill="#5eac24" r="2"/><circle cx="27" cy="43" fill="#5eac24" r="2"/><circle cx="37" cy="43" fill="#5eac24" r="2"/><circle cx="59" cy="5" fill="#7ed63e" r="2"/><circle cx="55" cy="13" fill="#7ed63e" r="2"/><circle cx="5" cy="5" fill="#7ed63e" r="2"/><circle cx="9" cy="13" fill="#7ed63e" r="2"/></g></svg>